<svg xmlns="http://www.w3.org/2000/svg" viewBox="0 0 152.64 91.04"><defs><style>.cls-1,.cls-5{fill:#424143;}.cls-2,.cls-3{fill:#355daa;}.cls-3{font-size:8.05px;}.cls-3,.cls-5{font-family:ArialNarrow-Bold, Arial;font-weight:700;}.cls-4{letter-spacing:-0.04em;}.cls-5{font-size:15.9px;}.cls-6{fill:#365eaa;}</style></defs><title>Asset 521px</title><g id="Layer_2" data-name="Layer 2"><g id="Layer_1-2" data-name="Layer 1"><path class="cls-1" d="M78.75,81.07V50.87H73.19V45h19v5.9H86.74v30.2Z"/><path class="cls-1" d="M104.89,81.57q-5.13,0-7.65-2.74c-1.67-1.82-2.58-4.72-2.71-8.72l6.84-1a12.1,12.1,0,0,0,.81,4.93,2.49,2.49,0,0,0,2.32,1.54c1.35,0,2-.88,2-2.62a7,7,0,0,0-.52-2.69,7.77,7.77,0,0,0-1.29-2.1,21.69,21.69,0,0,0-2.13-2l-3.2-2.77a25.22,25.22,0,0,1-1.92-1.83,14.25,14.25,0,0,1-1.49-2A8.36,8.36,0,0,1,94.9,57a12.7,12.7,0,0,1-.35-3.07,8.94,8.94,0,0,1,2.7-7,10.7,10.7,0,0,1,7.41-2.49,11.46,11.46,0,0,1,2.92.35,8.15,8.15,0,0,1,2.22.92,6.15,6.15,0,0,1,1.59,1.42,8.92,8.92,0,0,1,1.09,1.72,10.74,10.74,0,0,1,.68,1.94,15.89,15.89,0,0,1,.37,2c.06.6.11,1.24.14,1.92l-6.9.89c0-.61,0-1.11-.06-1.51s-.06-.83-.12-1.28a4.15,4.15,0,0,0-.24-1.08,3.2,3.2,0,0,0-.4-.78,1.41,1.41,0,0,0-.63-.51,2.28,2.28,0,0,0-.9-.13,1.83,1.83,0,0,0-1.6.88,3.51,3.51,0,0,0-.56,1.93,6.39,6.39,0,0,0,.25,1.86,4.93,4.93,0,0,0,.87,1.62c.42.52.75.92,1,1.18s.7.67,1.31,1.22l3.07,2.7A26.28,26.28,0,0,1,111,63.85a17.81,17.81,0,0,1,1.74,2.36,10.41,10.41,0,0,1,1.25,2.89,13.11,13.11,0,0,1,.43,3.39,8.73,8.73,0,0,1-2.62,6.5A9.32,9.32,0,0,1,104.89,81.57Z"/><path class="cls-1" d="M128.29,81.07,123.94,45h5l3.93,21,2.77-21h5.27l2.89,20.85L146,45h6.69l-4.38,36.1h-6.92l-3.07-21.78-3,21.78Z"/><path class="cls-2" d="M125.59,45h-9l-6.84,36.1h7.55l.64-4V77l1.71-11.54v-.06l1.48-10.78,1.37,9.95,1.88,12.49.64,4h7.36Z"/><text class="cls-3" transform="translate(73.19 88.58) scale(1.07 1)"><tspan class="cls-4">T</tspan><tspan x="3.67" y="0">ransforming Humanity</tspan></text><text class="cls-5" transform="translate(107.73 42.56)">Drones</text><path class="cls-6" d="M104.71,23.64c-.79-.49-29-1.79-40.37-2.31a22.55,22.55,0,0,0,.42-3.19c.07-1.89,0-3.48-.93-3.48s-1.74,1.89-1.78,3-.09,2.2-.09,2.2l-1.33,1.28-1,0s.58-11.12.79-14c.13-1.71-2.2-2-4.15-2a1.88,1.88,0,0,0,.2-.62c2.6.25,6.62.47,7.26-.44,1-1.37.15-2-1.58-3.19-1.27-.82-5,.58-6.9,1.41a.93.93,0,0,0-.42-.41A.7.7,0,0,0,55,1.35a.68.68,0,0,0-.43-.66.57.57,0,0,0,.07-.22A.45.45,0,0,0,54.17,0h-.65A.49.49,0,0,0,53,.47a.54.54,0,0,0,0,.22.74.74,0,0,0-.48.66.62.62,0,0,0,.15.44,1,1,0,0,0-.45.41C50.44,1.37,46.84,0,45.51.8,43.68,1.94,42.82,2.62,43.68,4c.57.91,4.61.69,7.23.44a1.61,1.61,0,0,0,.15.62c-2,0-4.3.34-4.31,2.05,0,2.93-.29,14-.29,14l-1,.05-1.23-1.29s0-1.06.09-2.19-.57-3-1.56-3-1.12,1.59-1.19,3.48a23.54,23.54,0,0,0,.17,3.19C30.28,21.86,2,23.19,1.18,23.67c-1,.61-1.5,10.1-.94,11.21s5.89,2,5.89,2l0-1.31,6.85.7,1.14,1.82,32.66,5.14s.2,4,1,10.21,2.72,31.7,2.72,31.82h0c0-.12,3.87-25.63,5.17-31.83s1.8-10.2,1.8-10.2l33.06-5.16,1.28-1.82,6.9-.71-.05,1.31s5.39-.91,6-2S105.69,24.24,104.71,23.64Z"/><path class="cls-6" d="M48.58,71.27,30.4,74.17l-.29,7.73,18.6,1.26s.31-.68.69-1.38C49.2,79.12,48.9,75.29,48.58,71.27Z"/><path class="cls-6" d="M52,81.78c.33.7.59,1.38.59,1.38l18.7-1.27.29-7.73-18-2.89C53,75.29,52.44,79.12,52,81.78Z"/></g></g></svg>